<svg width="32" height="32" viewBox="0 0 32 32" fill="none" xmlns="http://www.w3.org/2000/svg">
<rect width="32" height="32" fill="white"/>
<path d="M24.3294 8.42789C22.7527 7.70633 21.088 7.19357 19.3785 6.90479C19.145 7.32316 18.933 7.75353 18.7442 8.1943C16.9227 7.91992 15.0708 7.91992 13.2493 8.1943C13.0605 7.75353 12.8494 7.32316 12.615 6.90479C10.9039 7.19677 9.2384 7.70953 7.6601 8.43189C4.5267 13.0676 3.67716 17.5881 4.10193 22.0446C5.93701 23.4005 7.99048 24.4316 10.1743 25.0932C10.6663 24.4316 11.1007 23.7301 11.475 22.9957C10.7647 22.7302 10.0799 22.403 9.42718 22.0182C9.59917 21.8934 9.76716 21.7654 9.92955 21.6406C13.7741 23.4485 18.225 23.4485 22.0704 21.6406C22.2344 21.775 22.4023 21.903 22.5727 22.0182C21.9192 22.4046 21.232 22.7318 20.5209 22.9981C20.8944 23.7325 21.3296 24.4332 21.8216 25.0932C24.007 24.434 26.0621 23.4037 27.898 22.047C28.3964 16.8785 27.046 12.3996 24.3294 8.42789ZM12.0134 19.304C10.8303 19.304 9.85196 18.2297 9.85196 16.9089C9.85196 15.5882 10.7959 14.5043 12.0094 14.5043C13.2229 14.5043 14.1933 15.5874 14.1725 16.9089C14.1517 18.2305 13.2189 19.304 12.0134 19.304ZM19.9865 19.304C18.801 19.304 17.8274 18.2297 17.8274 16.9089C17.8274 15.5882 18.7714 14.5043 19.9865 14.5043C21.2016 14.5043 22.1648 15.5874 22.144 16.9089C22.1232 18.2305 21.1928 19.304 19.9865 19.304Z" fill="black"/>
</svg>
