<svg width="32" height="32" viewBox="0 0 32 32" fill="none" xmlns="http://www.w3.org/2000/svg">
<rect width="32" height="32" fill="white"/>
<g clip-path="url(#clip0_1017_317)">
<path d="M17.4194 3.63281V19.9986C17.4194 20.8654 17.075 21.6968 16.4621 22.3097C15.8491 22.9227 15.0177 23.2671 14.1509 23.2671C13.284 23.2671 12.4526 22.9227 11.8397 22.3097C11.2267 21.6968 10.8823 20.8654 10.8823 19.9986C10.8823 19.1306 11.2263 18.2981 11.839 17.6833C12.4516 17.0685 13.2829 16.7215 14.1509 16.7185V12.3643C12.1261 12.3643 10.1843 13.1686 8.75263 14.6003C7.32092 16.032 6.5166 17.9738 6.5166 19.9986C6.5166 22.0233 7.32092 23.9651 8.75263 25.3968C10.1843 26.8285 12.1261 27.6328 14.1509 27.6328C16.1756 27.6328 18.1174 26.8285 19.5491 25.3968C20.9808 23.9651 21.7851 22.0233 21.7851 19.9986V12.3643L22.0161 12.4798C23.3015 13.1167 24.7164 13.4486 26.1509 13.4499V9.08421H26.0238C24.8127 8.78249 23.7374 8.08412 22.9692 7.10036C22.201 6.1166 21.7842 4.90405 21.7851 3.65591H17.4194V3.63281Z" fill="black"/>
</g>
<defs>
<clipPath id="clip0_1017_317">
<rect width="24" height="24" fill="white" transform="translate(4 4)"/>
</clipPath>
</defs>
</svg>
