<svg width="21" height="21" viewBox="0 0 21 21" fill="none" xmlns="http://www.w3.org/2000/svg">
<g clip-path="url(#clip0_569_645)">
<path d="M7.1665 1.7583V5.09163" stroke="#3B55FF" stroke-width="1.66667" stroke-linecap="round" stroke-linejoin="round"/>
<path d="M13.8335 1.7583V5.09163" stroke="#3B55FF" stroke-width="1.66667" stroke-linecap="round" stroke-linejoin="round"/>
<path d="M16.3333 3.42529H4.66667C3.74619 3.42529 3 4.17149 3 5.09196V16.7586C3 17.6791 3.74619 18.4253 4.66667 18.4253H16.3333C17.2538 18.4253 18 17.6791 18 16.7586V5.09196C18 4.17149 17.2538 3.42529 16.3333 3.42529Z" stroke="#3B55FF" stroke-width="1.66667" stroke-linecap="round" stroke-linejoin="round"/>
<path d="M3 8.42529H18" stroke="#3B55FF" stroke-width="1.66667" stroke-linecap="round" stroke-linejoin="round"/>
<path d="M7.1665 11.7583H7.17484" stroke="#3B55FF" stroke-width="1.66667" stroke-linecap="round" stroke-linejoin="round"/>
<path d="M10.5 11.7583H10.5083" stroke="#3B55FF" stroke-width="1.66667" stroke-linecap="round" stroke-linejoin="round"/>
<path d="M13.8335 11.7583H13.8418" stroke="#3B55FF" stroke-width="1.66667" stroke-linecap="round" stroke-linejoin="round"/>
<path d="M7.1665 15.0918H7.17484" stroke="#3B55FF" stroke-width="1.66667" stroke-linecap="round" stroke-linejoin="round"/>
<path d="M10.5 15.0918H10.5083" stroke="#3B55FF" stroke-width="1.66667" stroke-linecap="round" stroke-linejoin="round"/>
<path d="M13.8335 15.0918H13.8418" stroke="#3B55FF" stroke-width="1.66667" stroke-linecap="round" stroke-linejoin="round"/>
</g>
<defs>
<clipPath id="clip0_569_645">
<rect width="20" height="20" fill="white" transform="translate(0.5 0.0917969)"/>
</clipPath>
</defs>
</svg>
